<?xml version="1.0" encoding="UTF-8" standalone="no"?>
<?xml-stylesheet href="styles.css" type="text/css"?>
<!DOCTYPE svg PUBLIC "-//W3C//DTD SVG 1.1//EN"
 "http://www.w3.org/Graphics/SVG/1.1/DTD/svg11.dtd">
<!-- Generated by graphviz version 2.43.0 (0)
 -->
<!-- Title: fsm Pages: 1 -->
<svg width="892pt" height="490pt"
 viewBox="0.00 0.00 892.00 489.56" xmlns="http://www.w3.org/2000/svg" xmlns:xlink="http://www.w3.org/1999/xlink">
<g id="graph0" class="graph" transform="scale(1 1) rotate(0) translate(4 485.56)">
<title>fsm</title>
<polygon fill="white" stroke="transparent" points="-4,4 -4,-485.56 888,-485.56 888,4 -4,4"/>
<g id="clust1" class="cluster">
<title>cluster_fsm</title>
<polygon fill="#fff8dc" stroke="black" points="8,-48.56 8,-473.56 876,-473.56 876,-48.56 8,-48.56"/>
<text text-anchor="middle" x="442" y="-458.36" font-family="Times,serif" font-size="14.00">fsm</text>
</g>
<!-- cluster_fsm_clock -->
<g id="node1" class="node">
<title>cluster_fsm_clock</title>
<polygon fill="#cccccc" stroke="black" points="70,-299.56 16,-299.56 16,-263.56 70,-263.56 70,-299.56"/>
<text text-anchor="middle" x="43" y="-277.86" font-family="Times,serif" font-size="14.00">clock</text>
</g>
<!-- cluster_fsm_reset -->
<g id="node2" class="node">
<title>cluster_fsm_reset</title>
<polygon fill="#cccccc" stroke="black" points="70,-103.56 16,-103.56 16,-67.56 70,-67.56 70,-103.56"/>
<text text-anchor="middle" x="43" y="-81.86" font-family="Times,serif" font-size="14.00">reset</text>
</g>
<!-- mux_1329129276 -->
<g id="node7" class="node">
<title>mux_1329129276</title>
<polygon fill="#afeeee" stroke="transparent" points="114,-60.56 114,-110.56 186,-110.56 186,-60.56 114,-60.56"/>
<polygon fill="none" stroke="black" points="114,-85.56 114,-110.56 137,-110.56 137,-85.56 114,-85.56"/>
<text text-anchor="start" x="120.5" y="-94.36" font-family="Times,serif" font-size="14.00">0</text>
<polygon fill="none" stroke="black" points="137,-60.56 137,-110.56 163,-110.56 163,-60.56 137,-60.56"/>
<text text-anchor="start" x="142" y="-81.86" font-family="Times,serif" font-size="14.00">a?</text>
<polygon fill="none" stroke="black" points="163,-60.56 163,-110.56 186,-110.56 186,-60.56 163,-60.56"/>
<text text-anchor="start" x="168" y="-81.86" font-family="Times,serif" font-size="14.00">●</text>
<polygon fill="none" stroke="black" points="114,-60.56 114,-85.56 137,-85.56 137,-60.56 114,-60.56"/>
<text text-anchor="start" x="119" y="-69.36" font-family="Times,serif" font-size="14.00">●</text>
</g>
<!-- cluster_fsm_reset&#45;&gt;mux_1329129276 -->
<g id="edge9" class="edge">
<title>cluster_fsm_reset&#45;&gt;mux_1329129276:select</title>
<path fill="none" stroke="black" d="M70.2,-68.8C97.67,-52.51 138.16,-32.56 147.86,-49.78"/>
<polygon fill="black" stroke="black" points="144.44,-50.54 150,-59.56 151.28,-49.05 144.44,-50.54"/>
</g>
<!-- cluster_fsm_io_in -->
<g id="node3" class="node">
<title>cluster_fsm_io_in</title>
<polygon fill="#cccccc" stroke="black" points="177,-168.56 123,-168.56 123,-132.56 177,-132.56 177,-168.56"/>
<text text-anchor="middle" x="150" y="-146.86" font-family="Times,serif" font-size="14.00">io_in</text>
</g>
<!-- mux_1866515062 -->
<g id="node10" class="node">
<title>mux_1866515062</title>
<polygon fill="#afeeee" stroke="transparent" points="388.5,-100.56 388.5,-150.56 460.5,-150.56 460.5,-100.56 388.5,-100.56"/>
<polygon fill="none" stroke="black" points="388.5,-125.56 388.5,-150.56 411.5,-150.56 411.5,-125.56 388.5,-125.56"/>
<text text-anchor="start" x="395" y="-134.36" font-family="Times,serif" font-size="14.00">1</text>
<polygon fill="none" stroke="black" points="411.5,-100.56 411.5,-150.56 437.5,-150.56 437.5,-100.56 411.5,-100.56"/>
<text text-anchor="start" x="416.5" y="-121.86" font-family="Times,serif" font-size="14.00">a?</text>
<polygon fill="none" stroke="black" points="437.5,-100.56 437.5,-150.56 460.5,-150.56 460.5,-100.56 437.5,-100.56"/>
<text text-anchor="start" x="442.5" y="-121.86" font-family="Times,serif" font-size="14.00">●</text>
<polygon fill="none" stroke="black" points="388.5,-100.56 388.5,-125.56 411.5,-125.56 411.5,-100.56 388.5,-100.56"/>
<text text-anchor="start" x="393.5" y="-109.36" font-family="Times,serif" font-size="14.00">●</text>
</g>
<!-- cluster_fsm_io_in&#45;&gt;mux_1866515062 -->
<g id="edge1" class="edge">
<title>cluster_fsm_io_in&#45;&gt;mux_1866515062:select</title>
<path fill="none" stroke="black" d="M177.22,-152.01C236.32,-155.12 377.67,-161.68 415.21,-155.52"/>
<polygon fill="black" stroke="black" points="416.67,-158.7 424.5,-151.56 413.93,-152.26 416.67,-158.7"/>
</g>
<!-- mux_1799593664 -->
<g id="node13" class="node">
<title>mux_1799593664</title>
<polygon fill="#afeeee" stroke="transparent" points="525,-85.56 525,-135.56 594,-135.56 594,-85.56 525,-85.56"/>
<polygon fill="none" stroke="black" points="525.5,-110.56 525.5,-135.56 545.5,-135.56 545.5,-110.56 525.5,-110.56"/>
<text text-anchor="start" x="530.5" y="-119.36" font-family="Times,serif" font-size="14.00">2</text>
<polygon fill="none" stroke="black" points="545.5,-85.56 545.5,-135.56 571.5,-135.56 571.5,-85.56 545.5,-85.56"/>
<text text-anchor="start" x="550.5" y="-106.86" font-family="Times,serif" font-size="14.00">a?</text>
<polygon fill="none" stroke="black" points="571.5,-85.56 571.5,-135.56 594.5,-135.56 594.5,-85.56 571.5,-85.56"/>
<text text-anchor="start" x="576.5" y="-106.86" font-family="Times,serif" font-size="14.00">●</text>
<polygon fill="none" stroke="black" points="525.5,-85.56 525.5,-110.56 545.5,-110.56 545.5,-85.56 525.5,-85.56"/>
<text text-anchor="start" x="530.5" y="-94.36" font-family="Times,serif" font-size="14.00">0</text>
</g>
<!-- cluster_fsm_io_in&#45;&gt;mux_1799593664 -->
<g id="edge17" class="edge">
<title>cluster_fsm_io_in&#45;&gt;mux_1799593664:select</title>
<path fill="none" stroke="black" d="M177.07,-140.85C218.36,-126.01 301.65,-98.29 375,-87.56 411.57,-82.21 532.56,-50.6 554.93,-75.08"/>
<polygon fill="black" stroke="black" points="551.7,-76.44 558.5,-84.56 558.25,-73.97 551.7,-76.44"/>
</g>
<!-- op_not_5 -->
<g id="node17" class="node">
<title>op_not_5</title>
<polygon fill="#d8bfd8" stroke="transparent" points="240,-354.06 240,-379.06 329,-379.06 329,-354.06 240,-354.06"/>
<polygon fill="none" stroke="black" points="240.5,-353.56 240.5,-378.56 263.5,-378.56 263.5,-353.56 240.5,-353.56"/>
<text text-anchor="start" x="245.5" y="-362.36" font-family="Times,serif" font-size="14.00">●</text>
<polygon fill="none" stroke="black" points="263.5,-353.56 263.5,-378.56 306.5,-378.56 306.5,-353.56 263.5,-353.56"/>
<text text-anchor="start" x="268.5" y="-362.36" font-family="Times,serif" font-size="14.00"> not </text>
<polygon fill="none" stroke="black" points="306.5,-353.56 306.5,-378.56 329.5,-378.56 329.5,-353.56 306.5,-353.56"/>
<text text-anchor="start" x="311.5" y="-362.36" font-family="Times,serif" font-size="14.00">●</text>
</g>
<!-- cluster_fsm_io_in&#45;&gt;op_not_5 -->
<g id="edge6" class="edge">
<title>cluster_fsm_io_in&#45;&gt;op_not_5:in1</title>
<path fill="none" stroke="black" d="M161.19,-168.69C183.95,-209.45 237.8,-307.49 249.31,-342.67"/>
<polygon fill="black" stroke="black" points="245.92,-343.55 251.5,-352.56 252.76,-342.04 245.92,-343.55"/>
</g>
<!-- cluster_fsm_io_out -->
<g id="node4" class="node">
<title>cluster_fsm_io_out</title>
<polygon fill="#e0ffff" stroke="black" points="589,-219.56 530,-219.56 530,-183.56 589,-183.56 589,-219.56"/>
<text text-anchor="middle" x="559.5" y="-197.86" font-family="Times,serif" font-size="14.00">io_out</text>
</g>
<!-- struct_cluster_fsm_state -->
<g id="node5" class="node">
<title>struct_cluster_fsm_state</title>
<polygon fill="#ffe4b5" stroke="transparent" points="238,-255.06 238,-280.06 331,-280.06 331,-255.06 238,-255.06"/>
<polygon fill="none" stroke="black" points="238.5,-254.56 238.5,-279.56 261.5,-279.56 261.5,-254.56 238.5,-254.56"/>
<text text-anchor="start" x="243.5" y="-263.36" font-family="Times,serif" font-size="14.00">●</text>
<polygon fill="none" stroke="black" points="261.5,-254.56 261.5,-279.56 308.5,-279.56 308.5,-254.56 261.5,-254.56"/>
<text text-anchor="start" x="266.5" y="-263.36" font-family="Times,serif" font-size="14.00">state</text>
<polygon fill="none" stroke="black" points="308.5,-254.56 308.5,-279.56 331.5,-279.56 331.5,-254.56 308.5,-254.56"/>
<text text-anchor="start" x="313.5" y="-263.36" font-family="Times,serif" font-size="14.00">●</text>
</g>
<!-- op_eq_1 -->
<g id="node6" class="node">
<title>op_eq_1</title>
<polygon fill="#d8bfd8" stroke="transparent" points="383,-176.56 383,-226.56 466,-226.56 466,-176.56 383,-176.56"/>
<polygon fill="none" stroke="black" points="383.5,-201.56 383.5,-226.56 406.5,-226.56 406.5,-201.56 383.5,-201.56"/>
<text text-anchor="start" x="388.5" y="-210.36" font-family="Times,serif" font-size="14.00">●</text>
<polygon fill="none" stroke="black" points="406.5,-176.56 406.5,-226.56 443.5,-226.56 443.5,-176.56 406.5,-176.56"/>
<text text-anchor="start" x="411.5" y="-197.86" font-family="Times,serif" font-size="14.00"> eq </text>
<polygon fill="none" stroke="black" points="443.5,-176.56 443.5,-226.56 466.5,-226.56 466.5,-176.56 443.5,-176.56"/>
<text text-anchor="start" x="448.5" y="-197.86" font-family="Times,serif" font-size="14.00">●</text>
<polygon fill="none" stroke="black" points="383.5,-176.56 383.5,-201.56 406.5,-201.56 406.5,-176.56 383.5,-176.56"/>
<text text-anchor="start" x="390" y="-185.36" font-family="Times,serif" font-size="14.00">2</text>
</g>
<!-- struct_cluster_fsm_state&#45;&gt;op_eq_1 -->
<g id="edge12" class="edge">
<title>struct_cluster_fsm_state:out&#45;&gt;op_eq_1:in1</title>
<path fill="none" stroke="black" d="M332.5,-266.56C360.68,-266.56 353.18,-226.39 372.72,-216.67"/>
<polygon fill="black" stroke="black" points="373.46,-220.09 382.5,-214.56 371.99,-213.24 373.46,-220.09"/>
</g>
<!-- op_eq_2 -->
<g id="node9" class="node">
<title>op_eq_2</title>
<polygon fill="#d8bfd8" stroke="transparent" points="653,-342.56 653,-392.56 736,-392.56 736,-342.56 653,-342.56"/>
<polygon fill="none" stroke="black" points="653.5,-367.56 653.5,-392.56 676.5,-392.56 676.5,-367.56 653.5,-367.56"/>
<text text-anchor="start" x="660" y="-376.36" font-family="Times,serif" font-size="14.00">0</text>
<polygon fill="none" stroke="black" points="676.5,-342.56 676.5,-392.56 713.5,-392.56 713.5,-342.56 676.5,-342.56"/>
<text text-anchor="start" x="681.5" y="-363.86" font-family="Times,serif" font-size="14.00"> eq </text>
<polygon fill="none" stroke="black" points="713.5,-342.56 713.5,-392.56 736.5,-392.56 736.5,-342.56 713.5,-342.56"/>
<text text-anchor="start" x="718.5" y="-363.86" font-family="Times,serif" font-size="14.00">●</text>
<polygon fill="none" stroke="black" points="653.5,-342.56 653.5,-367.56 676.5,-367.56 676.5,-342.56 653.5,-342.56"/>
<text text-anchor="start" x="658.5" y="-351.36" font-family="Times,serif" font-size="14.00">●</text>
</g>
<!-- struct_cluster_fsm_state&#45;&gt;op_eq_2 -->
<g id="edge11" class="edge">
<title>struct_cluster_fsm_state:out&#45;&gt;op_eq_2:in2</title>
<path fill="none" stroke="black" d="M320.5,-280.56C320.5,-285.02 371.35,-429 375,-431.56 461.54,-492.33 515.5,-437.94 609,-388.56 627.14,-378.98 628.2,-361.66 642.4,-356.23"/>
<polygon fill="black" stroke="black" points="643.21,-359.65 652.5,-354.56 642.06,-352.74 643.21,-359.65"/>
</g>
<!-- struct_cluster_fsm_state&#45;&gt;mux_1866515062 -->
<g id="edge13" class="edge">
<title>struct_cluster_fsm_state:out&#45;&gt;mux_1866515062:in2</title>
<path fill="none" stroke="black" d="M320.5,-253.56C320.5,-222.12 347.04,-131.87 377.83,-115.22"/>
<polygon fill="black" stroke="black" points="378.78,-118.59 387.5,-112.56 376.93,-111.84 378.78,-118.59"/>
</g>
<!-- op_eq_3 -->
<g id="node12" class="node">
<title>op_eq_3</title>
<polygon fill="#d8bfd8" stroke="transparent" points="518,-325.56 518,-375.56 601,-375.56 601,-325.56 518,-325.56"/>
<polygon fill="none" stroke="black" points="518.5,-350.56 518.5,-375.56 541.5,-375.56 541.5,-350.56 518.5,-350.56"/>
<text text-anchor="start" x="525" y="-359.36" font-family="Times,serif" font-size="14.00">1</text>
<polygon fill="none" stroke="black" points="541.5,-325.56 541.5,-375.56 578.5,-375.56 578.5,-325.56 541.5,-325.56"/>
<text text-anchor="start" x="546.5" y="-346.86" font-family="Times,serif" font-size="14.00"> eq </text>
<polygon fill="none" stroke="black" points="578.5,-325.56 578.5,-375.56 601.5,-375.56 601.5,-325.56 578.5,-325.56"/>
<text text-anchor="start" x="583.5" y="-346.86" font-family="Times,serif" font-size="14.00">●</text>
<polygon fill="none" stroke="black" points="518.5,-325.56 518.5,-350.56 541.5,-350.56 541.5,-325.56 518.5,-325.56"/>
<text text-anchor="start" x="523.5" y="-334.36" font-family="Times,serif" font-size="14.00">●</text>
</g>
<!-- struct_cluster_fsm_state&#45;&gt;op_eq_3 -->
<g id="edge15" class="edge">
<title>struct_cluster_fsm_state:out&#45;&gt;op_eq_3:in2</title>
<path fill="none" stroke="black" d="M332.5,-266.56C368.52,-266.56 343.68,-317.78 375,-335.56 427.07,-365.13 451.43,-340.58 507.45,-337.81"/>
<polygon fill="black" stroke="black" points="507.59,-341.31 517.5,-337.56 507.42,-334.31 507.59,-341.31"/>
</g>
<!-- mux_291590571 -->
<g id="node14" class="node">
<title>mux_291590571</title>
<polygon fill="#afeeee" stroke="transparent" points="523.5,-245.56 523.5,-295.56 595.5,-295.56 595.5,-245.56 523.5,-245.56"/>
<polygon fill="none" stroke="black" points="523.5,-270.56 523.5,-295.56 546.5,-295.56 546.5,-270.56 523.5,-270.56"/>
<text text-anchor="start" x="528.5" y="-279.36" font-family="Times,serif" font-size="14.00">●</text>
<polygon fill="none" stroke="black" points="546.5,-245.56 546.5,-295.56 572.5,-295.56 572.5,-245.56 546.5,-245.56"/>
<text text-anchor="start" x="551.5" y="-266.86" font-family="Times,serif" font-size="14.00">a?</text>
<polygon fill="none" stroke="black" points="572.5,-245.56 572.5,-295.56 595.5,-295.56 595.5,-245.56 572.5,-245.56"/>
<text text-anchor="start" x="577.5" y="-266.86" font-family="Times,serif" font-size="14.00">●</text>
<polygon fill="none" stroke="black" points="523.5,-245.56 523.5,-270.56 546.5,-270.56 546.5,-245.56 523.5,-245.56"/>
<text text-anchor="start" x="528.5" y="-254.36" font-family="Times,serif" font-size="14.00">●</text>
</g>
<!-- struct_cluster_fsm_state&#45;&gt;mux_291590571 -->
<g id="edge8" class="edge">
<title>struct_cluster_fsm_state:out&#45;&gt;mux_291590571:in2</title>
<path fill="none" stroke="black" d="M332.5,-266.56C351.64,-266.56 355.93,-261.25 375,-259.56 436.73,-254.09 454.97,-257.18 512.17,-257.53"/>
<polygon fill="black" stroke="black" points="512.49,-261.03 522.5,-257.56 512.51,-254.03 512.49,-261.03"/>
</g>
<!-- op_eq_4 -->
<g id="node15" class="node">
<title>op_eq_4</title>
<polygon fill="#d8bfd8" stroke="transparent" points="383,-272.56 383,-322.56 466,-322.56 466,-272.56 383,-272.56"/>
<polygon fill="none" stroke="black" points="383.5,-297.56 383.5,-322.56 406.5,-322.56 406.5,-297.56 383.5,-297.56"/>
<text text-anchor="start" x="390" y="-306.36" font-family="Times,serif" font-size="14.00">2</text>
<polygon fill="none" stroke="black" points="406.5,-272.56 406.5,-322.56 443.5,-322.56 443.5,-272.56 406.5,-272.56"/>
<text text-anchor="start" x="411.5" y="-293.86" font-family="Times,serif" font-size="14.00"> eq </text>
<polygon fill="none" stroke="black" points="443.5,-272.56 443.5,-322.56 466.5,-322.56 466.5,-272.56 443.5,-272.56"/>
<text text-anchor="start" x="448.5" y="-293.86" font-family="Times,serif" font-size="14.00">●</text>
<polygon fill="none" stroke="black" points="383.5,-272.56 383.5,-297.56 406.5,-297.56 406.5,-272.56 383.5,-272.56"/>
<text text-anchor="start" x="388.5" y="-281.36" font-family="Times,serif" font-size="14.00">●</text>
</g>
<!-- struct_cluster_fsm_state&#45;&gt;op_eq_4 -->
<g id="edge19" class="edge">
<title>struct_cluster_fsm_state:out&#45;&gt;op_eq_4:in2</title>
<path fill="none" stroke="black" d="M332.5,-266.56C352.24,-266.56 357.41,-279.14 372.38,-283.27"/>
<polygon fill="black" stroke="black" points="372.14,-286.77 382.5,-284.56 373.02,-279.82 372.14,-286.77"/>
</g>
<!-- mux_1877440834 -->
<g id="node16" class="node">
<title>mux_1877440834</title>
<polygon fill="#afeeee" stroke="transparent" points="388.5,-368.56 388.5,-418.56 460.5,-418.56 460.5,-368.56 388.5,-368.56"/>
<polygon fill="none" stroke="black" points="388.5,-393.56 388.5,-418.56 411.5,-418.56 411.5,-393.56 388.5,-393.56"/>
<text text-anchor="start" x="395" y="-402.36" font-family="Times,serif" font-size="14.00">0</text>
<polygon fill="none" stroke="black" points="411.5,-368.56 411.5,-418.56 437.5,-418.56 437.5,-368.56 411.5,-368.56"/>
<text text-anchor="start" x="416.5" y="-389.86" font-family="Times,serif" font-size="14.00">a?</text>
<polygon fill="none" stroke="black" points="437.5,-368.56 437.5,-418.56 460.5,-418.56 460.5,-368.56 437.5,-368.56"/>
<text text-anchor="start" x="442.5" y="-389.86" font-family="Times,serif" font-size="14.00">●</text>
<polygon fill="none" stroke="black" points="388.5,-368.56 388.5,-393.56 411.5,-393.56 411.5,-368.56 388.5,-368.56"/>
<text text-anchor="start" x="393.5" y="-377.36" font-family="Times,serif" font-size="14.00">●</text>
</g>
<!-- struct_cluster_fsm_state&#45;&gt;mux_1877440834 -->
<g id="edge5" class="edge">
<title>struct_cluster_fsm_state:out&#45;&gt;mux_1877440834:in2</title>
<path fill="none" stroke="black" d="M320.5,-280.56C320.5,-319.99 346.36,-323.46 375,-350.56 381.02,-356.26 389.08,-356.3 394.29,-358.76"/>
<polygon fill="black" stroke="black" points="391.39,-360.74 399.5,-367.56 397.41,-357.18 391.39,-360.74"/>
</g>
<!-- op_eq_1&#45;&gt;cluster_fsm_io_out -->
<g id="edge21" class="edge">
<title>op_eq_1:out&#45;&gt;cluster_fsm_io_out</title>
<path fill="none" stroke="black" d="M467.5,-201.56C484.61,-201.56 503.52,-201.56 519.66,-201.56"/>
<polygon fill="black" stroke="black" points="519.81,-205.06 529.81,-201.56 519.81,-198.06 519.81,-205.06"/>
</g>
<!-- mux_1329129276&#45;&gt;struct_cluster_fsm_state -->
<g id="edge4" class="edge">
<title>mux_1329129276:out&#45;&gt;struct_cluster_fsm_state:in</title>
<path fill="none" stroke="black" d="M175,-111.56C175,-121.55 187.52,-115.96 194,-123.56 232.43,-168.68 247.74,-188.46 249.36,-243.29"/>
<polygon fill="black" stroke="black" points="245.86,-243.61 249.5,-253.56 252.86,-243.51 245.86,-243.61"/>
</g>
<!-- mux_480018100 -->
<g id="node8" class="node">
<title>mux_480018100</title>
<polygon fill="#afeeee" stroke="transparent" points="788,-160.56 788,-210.56 860,-210.56 860,-160.56 788,-160.56"/>
<polygon fill="none" stroke="black" points="788,-185.56 788,-210.56 811,-210.56 811,-185.56 788,-185.56"/>
<text text-anchor="start" x="793" y="-194.36" font-family="Times,serif" font-size="14.00">●</text>
<polygon fill="none" stroke="black" points="811,-160.56 811,-210.56 837,-210.56 837,-160.56 811,-160.56"/>
<text text-anchor="start" x="816" y="-181.86" font-family="Times,serif" font-size="14.00">a?</text>
<polygon fill="none" stroke="black" points="837,-160.56 837,-210.56 860,-210.56 860,-160.56 837,-160.56"/>
<text text-anchor="start" x="842" y="-181.86" font-family="Times,serif" font-size="14.00">●</text>
<polygon fill="none" stroke="black" points="788,-160.56 788,-185.56 811,-185.56 811,-160.56 788,-160.56"/>
<text text-anchor="start" x="793" y="-169.36" font-family="Times,serif" font-size="14.00">●</text>
</g>
<!-- mux_480018100&#45;&gt;mux_1329129276 -->
<g id="edge3" class="edge">
<title>mux_480018100:out&#45;&gt;mux_1329129276:in2</title>
<path fill="none" stroke="black" d="M849,-159.56C849,-14.11 665.7,-57.56 560.5,-57.56 423.5,-57.56 423.5,-57.56 423.5,-57.56 294.46,-57.56 134.04,66.06 125.37,-49.26"/>
<polygon fill="black" stroke="black" points="121.86,-49.44 125,-59.56 128.85,-49.69 121.86,-49.44"/>
</g>
<!-- op_eq_2&#45;&gt;mux_480018100 -->
<g id="edge23" class="edge">
<title>op_eq_2:out&#45;&gt;mux_480018100:select</title>
<path fill="none" stroke="black" d="M725.5,-341.56C725.5,-272.61 814.62,-282.8 823.32,-221.58"/>
<polygon fill="black" stroke="black" points="826.81,-221.78 824,-211.56 819.83,-221.3 826.81,-221.78"/>
</g>
<!-- mux_1866515062&#45;&gt;mux_480018100 -->
<g id="edge2" class="edge">
<title>mux_1866515062:out&#45;&gt;mux_480018100:in1</title>
<path fill="none" stroke="black" d="M461.5,-125.56C485.36,-125.56 487.29,-141.27 510,-148.56 566.53,-166.71 708.96,-195.46 776.78,-198.33"/>
<polygon fill="black" stroke="black" points="776.92,-201.83 787,-198.56 777.08,-194.84 776.92,-201.83"/>
</g>
<!-- mux_1335999074 -->
<g id="node11" class="node">
<title>mux_1335999074</title>
<polygon fill="#afeeee" stroke="transparent" points="658.5,-221.56 658.5,-271.56 730.5,-271.56 730.5,-221.56 658.5,-221.56"/>
<polygon fill="none" stroke="black" points="658.5,-246.56 658.5,-271.56 681.5,-271.56 681.5,-246.56 658.5,-246.56"/>
<text text-anchor="start" x="663.5" y="-255.36" font-family="Times,serif" font-size="14.00">●</text>
<polygon fill="none" stroke="black" points="681.5,-221.56 681.5,-271.56 707.5,-271.56 707.5,-221.56 681.5,-221.56"/>
<text text-anchor="start" x="686.5" y="-242.86" font-family="Times,serif" font-size="14.00">a?</text>
<polygon fill="none" stroke="black" points="707.5,-221.56 707.5,-271.56 730.5,-271.56 730.5,-221.56 707.5,-221.56"/>
<text text-anchor="start" x="712.5" y="-242.86" font-family="Times,serif" font-size="14.00">●</text>
<polygon fill="none" stroke="black" points="658.5,-221.56 658.5,-246.56 681.5,-246.56 681.5,-221.56 658.5,-221.56"/>
<text text-anchor="start" x="663.5" y="-230.36" font-family="Times,serif" font-size="14.00">●</text>
</g>
<!-- mux_1335999074&#45;&gt;mux_480018100 -->
<g id="edge14" class="edge">
<title>mux_1335999074:out&#45;&gt;mux_480018100:in2</title>
<path fill="none" stroke="black" d="M719.5,-220.56C719.5,-187.2 744.7,-174.89 776.83,-172.87"/>
<polygon fill="black" stroke="black" points="777.11,-176.36 787,-172.56 776.9,-169.37 777.11,-176.36"/>
</g>
<!-- op_eq_3&#45;&gt;mux_1335999074 -->
<g id="edge22" class="edge">
<title>op_eq_3:out&#45;&gt;mux_1335999074:select</title>
<path fill="none" stroke="black" d="M590.5,-324.56C590.5,-313.71 663.86,-293.52 687.35,-279.68"/>
<polygon fill="black" stroke="black" points="689.88,-282.1 694.5,-272.56 684.94,-277.14 689.88,-282.1"/>
</g>
<!-- mux_1799593664&#45;&gt;mux_1335999074 -->
<g id="edge18" class="edge">
<title>mux_1799593664:out&#45;&gt;mux_1335999074:in1</title>
<path fill="none" stroke="black" d="M583.5,-136.56C583.5,-156.9 598.29,-157.27 609,-174.56 629.85,-208.21 616.89,-251.02 647.19,-258.44"/>
<polygon fill="black" stroke="black" points="647.18,-261.96 657.5,-259.56 647.94,-255 647.18,-261.96"/>
</g>
<!-- mux_291590571&#45;&gt;mux_1335999074 -->
<g id="edge10" class="edge">
<title>mux_291590571:out&#45;&gt;mux_1335999074:in2</title>
<path fill="none" stroke="black" d="M596.5,-270.56C624.37,-270.56 625.88,-241.98 647.36,-235.06"/>
<polygon fill="black" stroke="black" points="648.12,-238.49 657.5,-233.56 647.1,-231.56 648.12,-238.49"/>
</g>
<!-- op_eq_4&#45;&gt;mux_291590571 -->
<g id="edge7" class="edge">
<title>op_eq_4:out&#45;&gt;mux_291590571:select</title>
<path fill="none" stroke="black" d="M467.5,-297.56C484.11,-297.56 534.46,-310.4 552.76,-304.25"/>
<polygon fill="black" stroke="black" points="555.54,-306.39 559.5,-296.56 550.28,-301.77 555.54,-306.39"/>
</g>
<!-- mux_1877440834&#45;&gt;mux_291590571 -->
<g id="edge16" class="edge">
<title>mux_1877440834:out&#45;&gt;mux_291590571:in1</title>
<path fill="none" stroke="black" d="M449.5,-367.56C449.5,-349.39 495.63,-323.68 510,-312.56 516.43,-307.59 524.39,-307.66 529.46,-305.24"/>
<polygon fill="black" stroke="black" points="532.51,-306.97 534.5,-296.56 526.45,-303.45 532.51,-306.97"/>
</g>
<!-- op_not_5&#45;&gt;mux_1877440834 -->
<g id="edge20" class="edge">
<title>op_not_5:out&#45;&gt;mux_1877440834:select</title>
<path fill="none" stroke="black" d="M330.5,-365.56C347.64,-365.56 399.91,-352.85 418.15,-359.81"/>
<polygon fill="black" stroke="black" points="415.45,-362.05 424.5,-367.56 420.87,-357.61 415.45,-362.05"/>
</g>
</g>
</svg>
